<svg width="55" height="31" viewBox="0 0 55 31" fill="none" xmlns="http://www.w3.org/2000/svg">
<path d="M54.4161 30.9122V0L47.7617 15.0791L54.4161 30.9122Z" fill="#AEAEAE"/>
<path d="M45.1476 15.0697L51.802 0H46.9044L40.3945 15.0697L47.1374 30.9122H51.802L45.1476 15.0697Z" fill="#30A94A"/>
<path d="M38.7306 15.0697L45.385 0H40.4874L33.9775 15.0697L40.7204 30.9122H45.385L38.7306 15.0697Z" fill="#4BB748"/>
<path d="M32.0763 15.0697L38.7307 0H33.8331L27.3232 15.0697L34.0661 30.9122H38.7307L32.0763 15.0697Z" fill="#82C540"/>
<path d="M25.3117 15.0697L31.966 0H27.0685L20.5586 15.0697L27.3015 30.9122H31.966L25.3117 15.0697Z" fill="#FFC526"/>
<path d="M18.8947 15.0697L25.549 0H20.6515L14.1416 15.0697L20.8845 30.9122H25.549L18.8947 15.0697Z" fill="#F78F1E"/>
<path d="M12.2404 15.0697L18.8947 0H13.9972L7.4873 15.0697L14.2302 30.9122H18.8947L12.2404 15.0697Z" fill="#F26434"/>
<path d="M5.20134 15.0697L11.8557 0H6.95812L0.448242 15.0697L7.19112 30.9122H11.8557L5.20134 15.0697Z" fill="#EF1D28"/>
</svg>
