<svg width="55" height="31" viewBox="0 0 55 31" fill="none" xmlns="http://www.w3.org/2000/svg">
<path d="M0.291953 -0.000111572L0.291951 30.9121L6.94629 15.833L0.291953 -0.000111572Z" fill="#AEAEAE"/>
<path d="M9.56038 15.8424L2.90604 30.9121L7.8036 30.9121L14.3135 15.8424L7.5706 -0.000111585L2.90604 -0.000112248L9.56038 15.8424Z" fill="#0FB8B5"/>
<path d="M29.408 15.8424L22.7537 30.9121L27.6513 30.9121L34.1611 15.8424L27.4183 -0.000111585L22.7537 -0.000112248L29.408 15.8424Z" fill="#5A53A3"/>
<path d="M15.9774 15.8424L9.32303 30.9121L14.2206 30.9121L20.7305 15.8424L13.9876 -0.000111585L9.32303 -0.000112248L15.9774 15.8424Z" fill="#4490CC"/>
<path d="M35.8241 15.8424L29.1697 30.9121L34.0673 30.9121L40.5771 15.8424L33.8343 -0.000111585L29.1697 -0.000112248L35.8241 15.8424Z" fill="#63459B"/>
<path d="M22.6317 15.8424L15.9773 30.9121L20.8749 30.9121L27.3848 15.8424L20.6419 -0.000111585L15.9773 -0.000112248L22.6317 15.8424Z" fill="#3855A5"/>
<path d="M42.4783 15.8424L35.824 30.9121L40.7216 30.9121L47.2314 15.8424L40.4886 -0.000111585L35.824 -0.000112248L42.4783 15.8424Z" fill="#6B2980"/>
<path d="M49.4266 15.8424L42.7723 30.9121L47.6698 30.9121L54.1797 15.8424L47.4368 -0.000111585L42.7723 -0.000112248L49.4266 15.8424Z" fill="#4D256C"/>
</svg>
