<svg width="702" height="195" viewBox="0 0 702 195" fill="none" xmlns="http://www.w3.org/2000/svg">
<path d="M115.5 124C50.7 81.9999 8.5 134.167 -4.5 165.5V208L703 201V66.9999C689.667 105.333 647.8 170.4 587 124C511 65.9999 488 6.99973 428 0.999801C376.676 -4.13252 288.333 101.667 249 132C231.5 146.833 180.3 166 115.5 124Z" fill="#E14D2A" fill-opacity="0.35"/>
<path d="M144.5 124C79.7 81.9999 37.5 134.167 24.5 165.5V208L732 201V66.9999C718.667 105.333 676.8 170.4 616 124C540 65.9999 517 6.99973 457 0.999801C405.676 -4.13252 317.333 101.667 278 132C260.5 146.833 209.3 166 144.5 124Z" fill="#E14D2A" fill-opacity="0.78"/>
<path d="M107.102 159.777C41.7071 121.665 -0.880564 169.002 -14 197.435V236L700 229.648V108.054C686.544 142.838 644.293 201.881 582.934 159.777C506.236 107.146 483.025 53.6082 422.474 48.1638C370.678 43.5066 281.524 139.511 241.829 167.036C224.168 180.496 172.498 197.888 107.102 159.777Z" fill="#E14D2A"/>
</svg>
