<svg width="291" height="367" viewBox="0 0 291 367" fill="none" xmlns="http://www.w3.org/2000/svg">
<path d="M79.9786 175.561C79.2387 176.013 78.514 176.108 77.8043 175.846C77.1001 175.585 76.4606 174.985 75.8861 174.045L75.3604 173.185L72.4859 174.942L71.9663 174.093L79.2751 169.624L80.4334 171.519C81.55 173.345 81.3984 174.693 79.9786 175.561ZM76.0903 172.739L76.5579 173.504C77.0184 174.257 77.4731 174.728 77.9222 174.915C78.3713 175.103 78.8641 175.033 79.4007 174.705C79.8839 174.41 80.1471 174.031 80.1902 173.57C80.2332 173.109 80.05 172.543 79.6404 171.873L79.0598 170.923L76.0903 172.739ZM77.7213 183.506L78.4003 182.864L78.3759 182.824C77.8655 182.761 77.4651 182.63 77.1747 182.432C76.8897 182.236 76.6229 181.934 76.3743 181.527C76.0422 180.984 75.9214 180.472 76.0119 179.991C76.1044 179.513 76.4089 179.116 76.9255 178.801C78.032 178.124 79.1528 178.654 80.2881 180.392L80.8865 181.303L81.2265 181.095C81.6564 180.832 81.916 180.546 82.0052 180.235C82.0997 179.925 82.0227 179.567 81.7741 179.16C81.495 178.704 81.0392 178.273 80.4068 177.867L80.8858 177.224C81.1975 177.404 81.4928 177.629 81.7717 177.898C82.0527 178.17 82.292 178.468 82.4896 178.792C82.8889 179.445 83.0394 180.017 82.941 180.507C82.8446 181.001 82.4765 181.444 81.8366 181.835L78.0972 184.121L77.7213 183.506ZM77.1601 181.274C77.4759 181.79 77.8651 182.109 78.3277 182.229C78.7923 182.352 79.2796 182.258 79.7895 181.946L80.2844 181.644L79.7421 180.835C79.3153 180.19 78.9206 179.776 78.558 179.595C78.2008 179.415 77.8305 179.442 77.4473 179.677C77.1473 179.86 76.974 180.09 76.9274 180.365C76.8829 180.644 76.9604 180.947 77.1601 181.274ZM86.2527 184.924C86.4014 185.168 86.5149 185.398 86.5931 185.616L85.7529 185.972C85.6644 185.714 85.5671 185.499 85.4612 185.326C85.1902 184.883 84.7779 184.613 84.2244 184.516C83.673 184.423 83.1289 184.54 82.5924 184.868L79.6529 186.665L79.1455 185.836L84.6246 182.486L85.0433 183.171L84.0865 183.886L84.111 183.926C84.5919 183.911 85.0166 183.988 85.3851 184.157C85.7536 184.325 86.0428 184.581 86.2527 184.924ZM83.3674 191.427C83.457 191.574 83.5536 191.709 83.6572 191.834C83.764 191.956 83.8536 192.05 83.9258 192.116L83.2909 192.504C83.1926 192.44 83.0761 192.328 82.9414 192.168C82.8055 192.013 82.6947 191.866 82.6092 191.726C81.9612 190.666 82.1955 189.795 83.312 189.112L86.5714 187.119L86.0916 186.335L86.4915 186.09L87.3163 186.664L88.7 186.299L88.9934 186.779L87.7236 187.555L88.6955 189.145L88.0507 189.539L87.0788 187.949L83.8543 189.921C83.5244 190.122 83.319 190.356 83.2381 190.62C83.1572 190.885 83.2003 191.154 83.3674 191.427ZM84.4207 194.464L83.9133 193.634L89.3924 190.285L89.8997 191.114L84.4207 194.464ZM90.8343 189.307C91.0243 189.191 91.1911 189.153 91.3348 189.193C91.4819 189.231 91.5982 189.321 91.6838 189.461C91.7653 189.594 91.7906 189.736 91.7597 189.888C91.7288 190.04 91.62 190.173 91.4334 190.287C91.2467 190.401 91.0772 190.438 90.9248 190.398C90.7757 190.357 90.6604 190.269 90.5789 190.136C90.4934 189.996 90.467 189.852 90.5 189.704C90.5362 189.553 90.6477 189.421 90.8343 189.307ZM87.5564 199.593L88.2354 198.952L88.211 198.912C87.7006 198.848 87.3002 198.717 87.0099 198.52C86.7248 198.323 86.458 198.021 86.2095 197.615C85.8773 197.071 85.7565 196.559 85.847 196.078C85.9395 195.6 86.244 195.204 86.7606 194.888C87.8671 194.211 88.9879 194.742 90.1232 196.479L90.7216 197.39L91.0616 197.182C91.4915 196.92 91.7511 196.633 91.8403 196.322C91.9348 196.012 91.8578 195.654 91.6093 195.247C91.3301 194.791 90.8743 194.36 90.2419 193.954L90.7209 193.311C91.0326 193.492 91.3279 193.716 91.6068 193.985C91.8878 194.258 92.1271 194.556 92.3247 194.879C92.7241 195.532 92.8745 196.104 92.7761 196.594C92.6797 197.088 92.3116 197.531 91.6717 197.922L87.9323 200.208L87.5564 199.593ZM86.9952 197.361C87.311 197.878 87.7002 198.196 88.1628 198.316C88.6274 198.439 89.1147 198.345 89.6246 198.034L90.1195 197.731L89.5772 196.922C89.1504 196.277 88.7557 195.863 88.3931 195.682C88.0359 195.502 87.6657 195.529 87.2824 195.764C86.9824 195.947 86.8092 196.177 86.7625 196.452C86.718 196.732 86.7955 197.034 86.9952 197.361ZM89.488 202.753L88.9806 201.923L96.7593 197.167L97.2666 197.997L89.488 202.753ZM96.7322 210.232C96.089 210.626 95.4448 210.699 94.7996 210.452C94.1544 210.206 93.5873 209.683 93.0983 208.883C92.5686 208.016 92.2727 207.281 92.2107 206.678L93.0306 206.177C93.0873 206.555 93.187 206.942 93.3297 207.34C93.4723 207.738 93.6496 208.111 93.8615 208.457C94.2079 209.024 94.5754 209.385 94.9639 209.542C95.3557 209.696 95.7433 209.656 96.1266 209.421C96.3799 209.267 96.5549 209.089 96.6517 208.887C96.7539 208.688 96.8 208.426 96.7899 208.102C96.7819 207.782 96.7158 207.326 96.5916 206.733C96.4192 205.905 96.41 205.242 96.564 204.745C96.72 204.251 97.0663 203.84 97.6029 203.512C98.1661 203.168 98.7438 203.106 99.3358 203.325C99.9279 203.545 100.437 204.003 100.863 204.699C101.307 205.426 101.582 206.175 101.688 206.948L100.786 207.136C100.671 206.378 100.439 205.714 100.091 205.144C99.8155 204.694 99.5039 204.401 99.1557 204.266C98.8076 204.131 98.4619 204.168 98.1186 204.378C97.8653 204.533 97.6855 204.707 97.5793 204.9C97.4763 205.091 97.4238 205.339 97.4216 205.642C97.4248 205.947 97.4844 206.378 97.6002 206.934C97.7955 207.868 97.8242 208.574 97.6861 209.052C97.5501 209.533 97.2321 209.927 96.7322 210.232ZM101.581 210.221L98.0264 212.394C97.5798 212.667 97.3087 212.973 97.213 213.31C97.1174 213.648 97.202 214.034 97.4668 214.467C97.8173 215.04 98.2297 215.363 98.7039 215.434C99.1802 215.51 99.7733 215.33 100.483 214.896L103.363 213.136L103.87 213.966L98.3909 217.315L97.9722 216.63L98.6337 216.061L98.6062 216.016C98.2324 216.011 97.8811 215.901 97.5523 215.685C97.2257 215.473 96.9441 215.173 96.7078 214.787C96.3003 214.12 96.153 213.524 96.2658 212.997C96.3807 212.473 96.7864 211.999 97.483 211.573L101.067 209.381L101.581 210.221ZM100.929 221.691C100.71 221.334 100.576 220.968 100.524 220.592C100.478 220.217 100.531 219.846 100.682 219.479L100.645 219.419C100.35 219.654 100.059 219.86 99.7722 220.035L97.5176 221.413L97.0102 220.584L104.949 215.73L105.361 216.405L104.682 216.979L104.706 217.019C105.137 217.048 105.505 217.164 105.812 217.366C106.118 217.568 106.383 217.852 106.608 218.219C107.052 218.945 107.146 219.657 106.89 220.354C106.635 221.054 106.06 221.678 105.164 222.226C104.264 222.776 103.441 223.003 102.694 222.905C101.953 222.809 101.365 222.404 100.929 221.691ZM105.829 218.53C105.487 217.97 105.084 217.66 104.622 217.599C104.159 217.539 103.587 217.712 102.907 218.119L102.722 218.232C101.952 218.703 101.479 219.168 101.302 219.628C101.129 220.087 101.216 220.599 101.562 221.166C101.852 221.639 102.269 221.892 102.816 221.924C103.364 221.96 103.975 221.772 104.648 221.36C105.331 220.943 105.772 220.488 105.97 219.996C106.174 219.505 106.127 219.016 105.829 218.53ZM104.767 227.97C104.549 227.613 104.414 227.247 104.363 226.87C104.317 226.496 104.37 226.125 104.521 225.758L104.484 225.698C104.189 225.933 103.897 226.139 103.611 226.314L101.356 227.692L100.849 226.863L108.788 222.009L109.2 222.684L108.521 223.257L108.545 223.297C108.975 223.327 109.344 223.443 109.65 223.645C109.957 223.847 110.222 224.131 110.446 224.498C110.89 225.224 110.984 225.936 110.728 226.633C110.474 227.333 109.899 227.957 109.002 228.505C108.102 229.055 107.279 229.281 106.533 229.184C105.792 229.088 105.203 228.683 104.767 227.97ZM109.668 224.809C109.326 224.249 108.923 223.938 108.46 223.878C107.998 223.818 107.426 223.991 106.745 224.398L106.56 224.511C105.79 224.981 105.317 225.447 105.141 225.907C104.968 226.366 105.055 226.878 105.401 227.445C105.69 227.918 106.108 228.171 106.654 228.203C107.203 228.239 107.813 228.051 108.487 227.639C109.17 227.221 109.611 226.767 109.809 226.275C110.012 225.784 109.965 225.295 109.668 224.809ZM112.783 234.689C111.89 235.235 111.054 235.437 110.276 235.295C109.501 235.15 108.871 234.682 108.386 233.888C108.086 233.399 107.935 232.893 107.933 232.373C107.931 231.852 108.081 231.357 108.385 230.888C108.689 230.418 109.129 230.007 109.705 229.655C110.598 229.109 111.43 228.907 112.199 229.05C112.972 229.191 113.601 229.658 114.086 230.452C114.555 231.218 114.672 231.982 114.437 232.744C114.204 233.509 113.653 234.157 112.783 234.689ZM110.231 230.515C109.531 230.943 109.083 231.409 108.888 231.913C108.692 232.417 108.761 232.94 109.093 233.484C109.425 234.027 109.858 234.327 110.393 234.385C110.933 234.444 111.554 234.259 112.257 233.829C112.954 233.403 113.395 232.939 113.582 232.435C113.774 231.933 113.702 231.407 113.366 230.857C113.034 230.314 112.605 230.013 112.079 229.955C111.554 229.896 110.937 230.083 110.231 230.515ZM118.038 236.915C118.187 237.159 118.3 237.389 118.378 237.607L117.538 237.963C117.45 237.706 117.352 237.49 117.246 237.317C116.975 236.874 116.563 236.604 116.01 236.507C115.458 236.414 114.914 236.531 114.378 236.859L111.438 238.657L110.931 237.827L116.41 234.477L116.829 235.162L115.872 235.877L115.896 235.917C116.377 235.903 116.802 235.979 117.17 236.148C117.539 236.316 117.828 236.572 118.038 236.915ZM115.153 243.418C115.242 243.565 115.339 243.7 115.442 243.825C115.549 243.947 115.639 244.041 115.711 244.107L115.076 244.495C114.978 244.431 114.861 244.32 114.727 244.159C114.591 244.004 114.48 243.857 114.394 243.717C113.747 242.657 113.981 241.786 115.097 241.103L118.357 239.111L117.877 238.326L118.277 238.081L119.102 238.655L120.485 238.29L120.779 238.77L119.509 239.546L120.481 241.136L119.836 241.53L118.864 239.94L115.64 241.912C115.31 242.113 115.104 242.347 115.023 242.611C114.943 242.876 114.986 243.145 115.153 243.418Z" fill="black"/>
<path d="M168.857 362.667C168.784 362.933 168.942 363.208 169.208 363.28L173.551 364.461C173.817 364.533 174.092 364.376 174.164 364.109C174.237 363.843 174.079 363.568 173.813 363.496L169.953 362.446L171.002 358.586C171.074 358.32 170.917 358.045 170.651 357.973C170.384 357.9 170.109 358.058 170.037 358.324L168.857 362.667ZM230.259 270.911L230.752 270.995L230.752 270.995L230.259 270.911ZM206.331 146.985L206.764 146.737L206.331 146.985ZM111.57 63.615L111.747 63.1473L111.747 63.1473L111.57 63.615ZM1.00525 69.5059C0.932818 69.7724 1.09012 70.0471 1.35659 70.1195L5.69904 71.2999C5.96551 71.3723 6.24025 71.215 6.31268 70.9485C6.38511 70.682 6.22781 70.4073 5.96133 70.3349L2.10138 69.2857L3.15057 65.4257C3.223 65.1593 3.0657 64.8845 2.79923 64.8121C2.53275 64.7397 2.25801 64.897 2.18558 65.1634L1.00525 69.5059ZM1.73618 70.0709C3.106 69.2866 4.48961 68.532 5.88634 67.8071L5.42568 66.9195C4.01676 67.6508 2.62108 68.412 1.2393 69.2031L1.73618 70.0709ZM14.4469 63.8027C17.3547 62.5855 20.3101 61.4887 23.3074 60.5125L22.9978 59.5617C19.9747 60.5462 16.9939 61.6525 14.0608 62.8802L14.4469 63.8027ZM32.4054 57.9497C35.4624 57.2192 38.5555 56.6082 41.6792 56.117L41.5238 55.1292C38.3745 55.6244 35.2557 56.2404 32.173 56.9771L32.4054 57.9497ZM51.0691 55.0086C54.1955 54.7599 57.3462 54.6274 60.5161 54.6114L60.5111 53.6114C57.3166 53.6275 54.1411 53.7611 50.9898 54.0118L51.0691 55.0086ZM69.9677 54.9058C73.0928 55.1152 76.2314 55.4359 79.3784 55.8681L79.5145 54.8774C76.3447 54.442 73.1831 54.119 70.0346 53.908L69.9677 54.9058ZM88.7002 57.4704C91.7643 58.103 94.832 58.8407 97.8988 59.6839L98.1639 58.7197C95.0765 57.8709 91.9878 57.1281 88.9024 56.4911L88.7002 57.4704ZM106.939 62.4775C108.426 62.9876 109.91 63.5227 111.394 64.0828L111.747 63.1473C110.254 62.5836 108.76 62.0451 107.264 61.5316L106.939 62.4775ZM111.394 64.0828C113.058 64.7112 114.714 65.3687 116.361 66.0549L116.746 65.1318C115.088 64.4413 113.422 63.7796 111.747 63.1473L111.394 64.0828ZM126.09 70.4885C129.272 72.0656 132.415 73.7502 135.515 75.5384L136.014 74.6722C132.897 72.8737 129.735 71.179 126.534 69.5925L126.09 70.4885ZM144.608 81.163C147.57 83.1218 150.486 85.1769 153.349 87.3244L153.949 86.5243C151.07 84.3652 148.139 82.2987 145.16 80.3289L144.608 81.163ZM161.718 93.9858C164.433 96.2763 167.093 98.6524 169.695 101.11L170.382 100.384C167.766 97.9128 165.092 95.5242 162.363 93.2215L161.718 93.9858ZM177.265 108.668C179.71 111.246 182.094 113.901 184.413 116.627L185.175 115.979C182.844 113.239 180.448 110.571 177.99 107.98L177.265 108.668ZM191.123 124.957C193.278 127.784 195.366 130.677 197.383 133.633L198.209 133.07C196.183 130.099 194.084 127.191 191.918 124.351L191.123 124.957ZM203.178 142.626C204.102 144.147 205.009 145.683 205.897 147.234L206.764 146.737C205.872 145.179 204.961 143.635 204.032 142.106L203.178 142.626ZM205.897 147.234C206.784 148.784 207.65 150.344 208.494 151.912L209.375 151.438C208.527 149.862 207.656 148.295 206.764 146.737L205.897 147.234ZM213.316 161.461C214.845 164.697 216.283 167.962 217.629 171.251L218.555 170.873C217.202 167.567 215.756 164.285 214.22 161.034L213.316 161.461ZM221.416 181.255C222.594 184.635 223.676 188.035 224.662 191.449L225.623 191.172C224.632 187.74 223.544 184.323 222.361 180.926L221.416 181.255ZM227.347 201.803C228.15 205.291 228.852 208.788 229.454 212.289L230.439 212.119C229.835 208.6 229.129 205.085 228.322 201.579L227.347 201.803ZM230.962 222.878C231.364 226.435 231.661 229.99 231.85 233.536L232.849 233.482C232.658 229.916 232.36 226.342 231.956 222.766L230.962 222.878ZM232.098 244.225C232.071 247.804 231.932 251.367 231.682 254.91L232.679 254.98C232.931 251.417 233.071 247.832 233.098 244.233L232.098 244.225ZM230.58 265.544C230.338 267.312 230.067 269.073 229.766 270.826L230.752 270.995C231.054 269.231 231.327 267.459 231.571 265.68L230.58 265.544ZM229.766 270.826C229.499 272.389 229.208 273.941 228.896 275.48L229.876 275.679C230.19 274.129 230.482 272.568 230.752 270.995L229.766 270.826ZM226.729 284.691C225.903 287.763 224.986 290.782 223.981 293.745L224.928 294.066C225.94 291.083 226.863 288.043 227.694 284.951L226.729 284.691ZM220.644 302.595C219.423 305.528 218.111 308.397 216.71 311.198L217.604 311.645C219.016 308.823 220.338 305.933 221.567 302.979L220.644 302.595ZM212.179 319.498C210.561 322.224 208.851 324.874 207.054 327.444L207.874 328.017C209.685 325.426 211.408 322.755 213.039 320.009L212.179 319.498ZM201.345 334.981C199.34 337.426 197.247 339.784 195.07 342.051L195.791 342.744C197.987 340.458 200.097 338.08 202.118 335.615L201.345 334.981ZM188.254 348.599C185.895 350.69 183.453 352.684 180.931 354.575L181.531 355.375C184.075 353.467 186.538 351.457 188.917 349.348L188.254 348.599ZM173.144 359.931C171.812 360.768 170.461 361.58 169.091 362.364L169.588 363.232C170.969 362.441 172.332 361.622 173.676 360.777L173.144 359.931ZM168.374 362.535C168.229 363.068 168.544 363.618 169.077 363.763L177.762 366.123C178.295 366.268 178.844 365.954 178.989 365.421C179.134 364.888 178.819 364.338 178.286 364.193L170.566 362.095L172.665 354.375C172.81 353.842 172.495 353.293 171.962 353.148C171.429 353.003 170.88 353.318 170.735 353.851L168.374 362.535ZM230.259 270.911L231.245 271.08L231.245 271.08L230.259 270.911ZM206.331 146.985L207.198 146.489L206.331 146.985ZM111.57 63.615L111.924 62.6795L111.924 62.6795L111.57 63.615ZM0.522756 69.3747C0.377893 69.9077 0.692499 70.4572 1.22545 70.602L9.91033 72.9627C10.4433 73.1076 10.9928 72.793 11.1376 72.26C11.2825 71.7271 10.9679 71.1776 10.4349 71.0327L2.71503 68.9343L4.8134 61.2144C4.95826 60.6815 4.64366 60.132 4.11071 59.9872C3.57776 59.8423 3.02829 60.1569 2.88342 60.6899L0.522756 69.3747ZM1.98462 70.5049C3.34846 69.724 4.72603 68.9727 6.11666 68.2509L5.19535 66.4758C3.78034 67.2102 2.37861 67.9747 0.990866 68.7692L1.98462 70.5049ZM14.6399 64.2639C17.5352 63.052 20.4778 61.9599 23.4623 60.9879L22.8429 59.0863C19.8071 60.075 16.8134 61.186 13.8677 62.419L14.6399 64.2639ZM32.5216 58.436C35.5658 57.7086 38.646 57.1001 41.7568 56.6109L41.4462 54.6352C38.284 55.1324 35.1524 55.751 32.0568 56.4908L32.5216 58.436ZM51.1088 55.507C54.2227 55.2593 57.361 55.1273 60.5186 55.1114L60.5085 53.1114C57.3018 53.1276 54.114 53.2617 50.9502 53.5133L51.1088 55.507ZM69.9343 55.4046C73.0477 55.6133 76.1747 55.9328 79.3104 56.3634L79.5825 54.382C76.4013 53.9451 73.2282 53.6209 70.068 53.4091L69.9343 55.4046ZM88.5991 57.9601C91.6525 58.5905 94.7097 59.3257 97.7663 60.166L98.2965 58.2376C95.1988 57.3859 92.0996 56.6406 89.0035 56.0014L88.5991 57.9601ZM106.777 62.9504C108.258 63.4589 109.739 63.9923 111.217 64.5505L111.924 62.6795C110.426 62.1141 108.927 61.5739 107.427 61.0587L106.777 62.9504ZM111.217 64.5505C112.876 65.1769 114.527 65.8324 116.169 66.5164L116.938 64.6702C115.275 63.9776 113.604 63.3139 111.924 62.6795L111.217 64.5505ZM125.868 70.9365C129.04 72.5088 132.174 74.1885 135.265 75.9715L136.264 74.2391C133.138 72.4354 129.967 70.7358 126.756 69.1445L125.868 70.9365ZM144.332 81.5801C147.286 83.5334 150.193 85.5828 153.049 87.7244L154.249 86.1243C151.362 83.9593 148.423 81.8871 145.436 79.9119L144.332 81.5801ZM161.396 94.3679C164.103 96.6523 166.756 99.0222 169.351 101.474L170.725 100.02C168.103 97.5429 165.422 95.1481 162.686 92.8394L161.396 94.3679ZM176.902 109.012C179.341 111.584 181.719 114.231 184.032 116.951L185.556 115.655C183.219 112.908 180.817 110.234 178.353 107.636L176.902 109.012ZM190.726 125.26C192.876 128.08 194.958 130.966 196.97 133.915L198.622 132.788C196.591 129.81 194.487 126.895 192.316 124.048L190.726 125.26ZM202.75 142.885C203.673 144.403 204.577 145.936 205.463 147.482L207.198 146.489C206.304 144.927 205.391 143.379 204.459 141.847L202.75 142.885ZM205.463 147.482C206.348 149.029 207.212 150.584 208.054 152.149L209.815 151.201C208.965 149.621 208.093 148.05 207.198 146.489L205.463 147.482ZM212.864 161.674C214.389 164.902 215.823 168.159 217.167 171.441L219.017 170.683C217.661 167.369 216.212 164.08 214.672 160.82L212.864 161.674ZM220.944 181.42C222.119 184.791 223.198 188.182 224.182 191.588L226.103 191.033C225.11 187.593 224.019 184.167 222.833 180.762L220.944 181.42ZM226.86 201.915C227.661 205.394 228.361 208.882 228.961 212.373L230.932 212.035C230.326 208.507 229.618 204.982 228.809 201.467L226.86 201.915ZM230.465 222.934C230.866 226.482 231.162 230.026 231.351 233.562L233.348 233.456C233.157 229.88 232.858 226.296 232.452 222.71L230.465 222.934ZM231.598 244.222C231.571 247.79 231.433 251.343 231.183 254.874L233.178 255.016C233.431 251.441 233.57 247.846 233.598 244.237L231.598 244.222ZM230.085 265.476C229.844 267.239 229.573 268.994 229.274 270.742L231.245 271.08C231.548 269.31 231.822 267.532 232.066 265.748L230.085 265.476ZM229.274 270.742C229.007 272.3 228.717 273.846 228.406 275.381L230.366 275.779C230.681 274.224 230.974 272.657 231.245 271.08L229.274 270.742ZM226.246 284.562C225.423 287.623 224.51 290.632 223.507 293.584L225.401 294.227C226.417 291.233 227.343 288.183 228.177 285.081L226.246 284.562ZM220.182 302.403C218.966 305.325 217.659 308.184 216.263 310.974L218.051 311.869C219.468 309.036 220.795 306.136 222.029 303.171L220.182 302.403ZM211.749 319.243C210.137 321.958 208.434 324.597 206.644 327.158L208.283 328.304C210.102 325.702 211.831 323.021 213.469 320.264L211.749 319.243ZM200.958 334.664C198.962 337.099 196.878 339.447 194.709 341.704L196.151 343.09C198.356 340.795 200.475 338.407 202.505 335.932L200.958 334.664ZM187.922 348.225C185.573 350.307 183.142 352.292 180.631 354.175L181.831 355.775C184.386 353.859 186.859 351.84 189.249 349.722L187.922 348.225ZM172.878 359.507C171.551 360.341 170.206 361.149 168.842 361.93L169.836 363.666C171.224 362.871 172.593 362.049 173.942 361.201L172.878 359.507Z" fill="black"/>
</svg>
