<svg width="96" height="119" viewBox="0 0 96 119" fill="none" xmlns="http://www.w3.org/2000/svg">
<path d="M20.742 42.2908C20.0781 42.648 19.4308 42.6857 18.8002 42.4041C18.1695 42.1224 17.6321 41.5687 17.1879 40.7432C16.7067 39.8488 16.4517 39.0988 16.4231 38.4932L17.2693 38.0379C17.3052 38.4178 17.3833 38.8104 17.5039 39.2158C17.6244 39.6211 17.7809 40.0027 17.9734 40.3604C18.288 40.9452 18.635 41.3263 19.0144 41.5037C19.3971 41.6792 19.7863 41.6605 20.1819 41.4477C20.4433 41.307 20.6279 41.1389 20.7356 40.9435C20.8487 40.7496 20.9091 40.4908 20.9169 40.1673C20.9265 39.8472 20.8856 39.3879 20.7943 38.7894C20.6678 37.9525 20.6951 37.2902 20.8762 36.8024C21.0592 36.318 21.4276 35.9269 21.9814 35.6289C22.5627 35.3161 23.1429 35.2856 23.722 35.5373C24.3011 35.7891 24.784 36.2745 25.1708 36.9934C25.5743 37.7433 25.8078 38.5071 25.8714 39.2846L24.9606 39.4221C24.887 38.6588 24.6919 37.983 24.3754 37.3948C24.1256 36.9304 23.8305 36.6212 23.4904 36.4671C23.1502 36.313 22.8029 36.3313 22.4486 36.5219C22.1872 36.6626 21.9981 36.8264 21.8814 37.0134C21.7681 37.1986 21.702 37.4426 21.6831 37.7456C21.6695 38.0501 21.7052 38.4833 21.7903 39.0453C21.9339 39.9882 21.9236 40.6946 21.7594 41.1644C21.5971 41.6377 21.258 42.0131 20.742 42.2908ZM25.5838 42.5466L21.9152 44.5206C21.4542 44.7686 21.1667 45.0586 21.0526 45.3906C20.9384 45.7226 21.0017 46.1122 21.2423 46.5594C21.5606 47.1511 21.9546 47.4958 22.4242 47.5935C22.8956 47.6948 23.4977 47.5482 24.2304 47.154L27.2024 45.5548L27.6633 46.4114L22.0081 49.4542L21.6277 48.7473L22.3196 48.2154L22.2946 48.1689C21.9216 48.1434 21.5769 48.0139 21.2606 47.7805C20.9461 47.5505 20.6815 47.236 20.4668 46.837C20.0966 46.149 19.9823 45.5451 20.124 45.0252C20.2676 44.5089 20.6988 44.0572 21.4178 43.6704L25.1174 41.6798L25.5838 42.5466ZM24.3009 53.9627C24.1028 53.5947 23.9885 53.2215 23.958 52.8431C23.9327 52.4664 24.0055 52.0989 24.1766 51.7407L24.1432 51.6788C23.8352 51.8978 23.5333 52.0869 23.2375 52.246L20.9104 53.4982L20.4495 52.6416L28.6434 48.2328L29.0182 48.9294L28.308 49.4645L28.3303 49.5058C28.7583 49.5594 29.1198 49.6953 29.4147 49.9137C29.7096 50.132 29.9589 50.4304 30.1625 50.8088C30.566 51.5587 30.6207 52.2745 30.3265 52.9562C30.0342 53.6413 29.4254 54.2328 28.5001 54.7307C27.5713 55.2305 26.7369 55.411 25.997 55.2724C25.2623 55.1354 24.697 54.6989 24.3009 53.9627ZM29.3683 51.0764C29.0574 50.4985 28.6725 50.1666 28.2138 50.0808C27.7551 49.9949 27.1747 50.1364 26.4727 50.5053L26.2818 50.608C25.4872 51.0356 24.9891 51.4743 24.7876 51.9243C24.5896 52.3724 24.6479 52.8888 24.9626 53.4736C25.2254 53.9621 25.6286 54.2375 26.1723 54.2998C26.7178 54.3656 27.338 54.2116 28.0329 53.8377C28.738 53.4582 29.2032 53.0283 29.4282 52.548C29.6585 52.0692 29.6385 51.5787 29.3683 51.0764ZM27.788 60.4435C27.5899 60.0754 27.4756 59.7022 27.445 59.3239C27.4198 58.9472 27.4926 58.5797 27.6636 58.2215L27.6303 58.1596C27.3223 58.3786 27.0204 58.5677 26.7245 58.7268L24.3974 59.979L23.9366 59.1224L32.1304 54.7136L32.5052 55.4102L31.7951 55.9453L31.8173 55.9866C32.2454 56.0402 32.6069 56.1761 32.9018 56.3945C33.1967 56.6128 33.446 56.9112 33.6496 57.2896C34.0531 58.0395 34.1077 58.7553 33.8136 59.437C33.5213 60.1221 32.9125 60.7136 31.9872 61.2115C31.0584 61.7113 30.224 61.8918 29.4841 61.7532C28.7494 61.6162 28.1841 61.1797 27.788 60.4435ZM32.8554 57.5572C32.5444 56.9793 32.1596 56.6474 31.7009 56.5616C31.2422 56.4757 30.6618 56.6172 29.9598 56.9861L29.7689 57.0888C28.9742 57.5163 28.4762 57.9551 28.2747 58.4051C28.0767 58.8532 28.135 59.3696 28.4497 59.9544C28.7125 60.4429 29.1157 60.7183 29.6594 60.7806C30.2049 60.8464 30.8251 60.6924 31.52 60.3185C32.2251 59.939 32.6902 59.5091 32.9153 59.0288C33.1456 58.55 33.1256 58.0595 32.8554 57.5572ZM35.4215 67.5943C34.4996 68.0903 33.654 68.2459 32.8847 68.061C32.1188 67.8742 31.5157 67.3715 31.0751 66.5528C30.8031 66.0471 30.6802 65.5344 30.7066 65.0145C30.7329 64.4946 30.9106 64.0087 31.2396 63.5567C31.5686 63.1046 32.0306 62.7185 32.6257 62.3983C33.5476 61.9022 34.3888 61.7468 35.1494 61.932C35.9134 62.1153 36.5157 62.6163 36.9562 63.435C37.3819 64.2262 37.4565 64.9956 37.1801 65.7431C36.9055 66.4941 36.3193 67.1112 35.4215 67.5943ZM33.1032 63.2858C32.3809 63.6745 31.9082 64.1151 31.6853 64.6076C31.4624 65.1002 31.5018 65.6268 31.8035 66.1875C32.1052 66.7482 32.5212 67.0722 33.0517 67.1594C33.5874 67.2482 34.2181 67.0973 34.944 66.7068C35.6629 66.3199 36.1295 65.8804 36.3437 65.3881C36.5631 64.8974 36.5202 64.3682 36.2148 63.8007C35.9131 63.24 35.5014 62.9159 34.9797 62.8284C34.458 62.7409 33.8325 62.8934 33.1032 63.2858ZM40.546 70.1067C40.6811 70.3578 40.7817 70.5942 40.8478 70.816L39.9893 71.1248C39.915 70.8632 39.8298 70.6429 39.7335 70.464C39.4874 70.0065 39.0906 69.7143 38.5433 69.5874C37.9978 69.464 37.4481 69.5512 36.8943 69.8492L33.8603 71.4817L33.3994 70.6252L39.0546 67.5823L39.435 68.2892L38.4403 68.9508L38.4625 68.9921C38.9435 69.0039 39.3633 69.104 39.722 69.2925C40.0807 69.481 40.3554 69.7524 40.546 70.1067ZM37.307 76.4406C37.3884 76.5919 37.4774 76.7326 37.5739 76.8625C37.6739 76.9906 37.7581 77.0894 37.8266 77.159L37.1713 77.5116C37.0766 77.4428 36.9665 77.3246 36.8408 77.1571C36.7136 76.9949 36.6112 76.8416 36.5334 76.6971C35.9448 75.6032 36.2267 74.7462 37.3791 74.1262L40.7433 72.316L40.3075 71.5059L40.7202 71.2838L41.5122 71.9023L42.9139 71.6139L43.1804 72.1092L41.8698 72.8144L42.7527 74.4552L42.0871 74.8134L41.2042 73.1725L37.8761 74.9633C37.5356 75.1465 37.3176 75.368 37.2223 75.6278C37.127 75.8876 37.1552 76.1585 37.307 76.4406ZM38.9128 81.1191C38.463 80.2832 38.3622 79.4858 38.6103 78.7268C38.8603 77.9713 39.4376 77.3501 40.3423 76.8634C41.2539 76.3729 42.0983 76.2069 42.8755 76.3653C43.6546 76.5272 44.2478 76.9865 44.655 77.7433C45.0363 78.4519 45.104 79.1385 44.8583 79.803C44.616 80.4657 44.1131 81.0024 43.3494 81.4133L42.8076 81.7049L40.7115 77.8092C40.0568 78.1836 39.6427 78.6216 39.469 79.1231C39.2971 79.6281 39.3666 80.1696 39.6776 80.7475C40.0052 81.3564 40.4564 81.8899 41.0311 82.348L40.2675 82.7589C39.9739 82.5265 39.7265 82.2893 39.5252 82.0471C39.3224 81.8103 39.1182 81.5009 38.9128 81.1191ZM43.9322 78.1189C43.6879 77.6648 43.3447 77.3815 42.9026 77.2689C42.4624 77.1598 41.968 77.2218 41.4192 77.455L43.01 80.4116C43.5501 80.121 43.8981 79.7785 44.054 79.3841C44.2134 78.9878 44.1728 78.5661 43.9322 78.1189ZM43.7529 88.0495L43.728 88.0031C42.9406 87.9166 42.3351 87.4795 41.9112 86.6918C41.5133 85.9522 41.4561 85.2399 41.7396 84.5551C42.025 83.8736 42.6339 83.2821 43.5661 82.7805C44.4983 82.279 45.3334 82.0957 46.0715 82.2309C46.8096 82.366 47.3767 82.8017 47.7728 83.5378C48.1856 84.3049 48.2234 85.0431 47.8864 85.7523L47.9225 85.8194L48.3107 85.5639L48.6969 85.3295L50.9982 84.0912L51.4591 84.9478L43.4303 89.2678L43.0555 88.5712L43.7529 88.0495ZM42.6867 86.4142C43.0014 86.999 43.3873 87.337 43.8444 87.4281C44.3068 87.5208 44.8924 87.3766 45.601 86.9953L45.7816 86.8981C46.5831 86.4669 47.0819 86.0255 47.2781 85.5739C47.4796 85.1239 47.423 84.6066 47.1083 84.0218C46.8381 83.5196 46.4347 83.2398 45.8982 83.1825C45.367 83.1268 44.7453 83.2905 44.0333 83.6736C43.3109 84.0623 42.8369 84.4881 42.6114 84.951C42.3858 85.4139 42.4109 85.9017 42.6867 86.4142Z" fill="black"/>
<path d="M49.3616 114.662C49.2805 114.926 49.4286 115.206 49.6926 115.287L53.9938 116.61C54.2578 116.691 54.5375 116.543 54.6187 116.279C54.6999 116.015 54.5517 115.735 54.2877 115.654L50.4644 114.478L51.6401 110.655C51.7213 110.391 51.5731 110.111 51.3092 110.03C51.0452 109.949 50.7654 110.097 50.6843 110.361L49.3616 114.662ZM74.7388 84.5795L74.2604 84.4339L74.2604 84.4339L74.7388 84.5795ZM40.7037 20.3178L40.5554 20.7953L40.7037 20.3178ZM1.22883 23.7826C1.14767 24.0465 1.29584 24.3263 1.55978 24.4075L5.86102 25.7301C6.12496 25.8113 6.40473 25.6631 6.48589 25.3991C6.56706 25.1352 6.41888 24.8554 6.15494 24.7743L2.33162 23.5986L3.50731 19.7753C3.58847 19.5113 3.4403 19.2316 3.17635 19.1504C2.91241 19.0692 2.63264 19.2174 2.55148 19.4813L1.22883 23.7826ZM1.94076 24.3714C3.41303 23.5916 4.91646 22.8888 6.44521 22.2635L6.06662 21.338C4.50749 21.9757 2.9742 22.6925 1.47272 23.4877L1.94076 24.3714ZM15.9662 19.4281C19.2242 18.7993 22.5379 18.4933 25.8587 18.5147L25.8652 17.5147C22.4787 17.4929 19.0993 17.8049 15.7767 18.4463L15.9662 19.4281ZM35.7391 19.5543C37.3564 19.8874 38.9638 20.3009 40.5554 20.7953L40.8521 19.8403C39.2291 19.3362 37.5901 18.9146 35.9408 18.5749L35.7391 19.5543ZM40.5554 20.7953C42.1519 21.2912 43.7163 21.8635 45.2441 22.5084L45.633 21.5871C44.0752 20.9296 42.48 20.346 40.8521 19.8403L40.5554 20.7953ZM54.0068 27.2675C56.7639 29.1358 59.3331 31.2705 61.6768 33.6406L62.3878 32.9375C59.9984 30.5211 57.3789 28.3445 54.5678 26.4397L54.0068 27.2675ZM67.9641 41.3813C68.8789 42.7638 69.73 44.196 70.5127 45.6739L71.3964 45.2058C70.5984 43.6991 69.7308 42.239 68.798 40.8294L67.9641 41.3813ZM70.5127 45.6739C71.2955 47.1518 72.002 48.6605 72.6316 50.1941L73.5567 49.8143C72.9147 48.2507 72.1945 46.7126 71.3964 45.2058L70.5127 45.6739ZM75.5022 59.7444C76.1459 63.0148 76.4683 66.3396 76.4645 69.67L77.4645 69.6711C77.4683 66.2754 77.1397 62.8856 76.4833 59.5512L75.5022 59.7444ZM75.4778 79.5928C75.1528 81.2189 74.7472 82.8346 74.2604 84.4339L75.2171 84.7251C75.7135 83.0943 76.1271 81.4469 76.4584 79.7888L75.4778 79.5928ZM74.2604 84.4339C73.7751 86.0283 73.214 87.5903 72.5808 89.1154L73.5044 89.4988C74.1501 87.9436 74.7222 86.3509 75.2171 84.7251L74.2604 84.4339ZM67.8893 97.8727C66.0411 100.632 63.9261 103.201 61.5753 105.543L62.281 106.251C64.6784 103.863 66.8353 101.243 68.7201 98.4292L67.8893 97.8727ZM53.8801 111.826C52.5039 112.739 51.0778 113.588 49.6055 114.367L50.0736 115.251C51.575 114.456 53.0295 113.59 54.4331 112.659L53.8801 111.826ZM48.8837 114.515C48.7214 115.043 49.0177 115.603 49.5456 115.765L58.1481 118.41C58.676 118.573 59.2355 118.276 59.3978 117.748C59.5602 117.221 59.2638 116.661 58.7359 116.499L51.0893 114.147L53.4407 106.501C53.603 105.973 53.3066 105.413 52.7788 105.251C52.2509 105.089 51.6913 105.385 51.529 105.913L48.8837 114.515ZM74.7388 84.5795L73.7821 84.2883L73.7821 84.2883L74.7388 84.5795ZM40.7037 20.3178L40.4071 21.2728L40.7037 20.3178ZM0.750915 23.6356C0.588586 24.1635 0.884933 24.723 1.41282 24.8854L10.0153 27.5307C10.5432 27.693 11.1027 27.3966 11.265 26.8688C11.4274 26.3409 11.131 25.7813 10.6031 25.619L2.9565 23.2676L5.30787 15.621C5.4702 15.0931 5.17385 14.5336 4.64596 14.3712C4.11807 14.2089 3.55854 14.5053 3.39621 15.0332L0.750915 23.6356ZM2.17478 24.8132C3.63245 24.0412 5.12094 23.3454 6.6345 22.7263L5.87733 20.8752C4.303 21.5191 2.75479 22.2429 1.2387 23.0458L2.17478 24.8132ZM16.061 19.9191C19.2867 19.2965 22.5676 18.9935 25.8555 19.0147L25.8684 17.0147C22.4491 16.9927 19.0369 17.3078 15.682 17.9553L16.061 19.9191ZM35.6382 20.044C37.2396 20.3739 38.8311 20.7833 40.4071 21.2728L41.0004 19.3628C39.3618 18.8539 37.7069 18.4281 36.0417 18.0851L35.6382 20.044ZM40.4071 21.2728C41.9879 21.7639 43.5369 22.3305 45.0496 22.969L45.8274 21.1265C44.2546 20.4626 42.644 19.8734 41.0004 19.3628L40.4071 21.2728ZM53.7264 27.6815C56.4564 29.5314 59.0005 31.6453 61.3212 33.9922L62.7434 32.5859C60.331 30.1464 57.6864 27.9489 54.8483 26.0258L53.7264 27.6815ZM67.5471 41.6572C68.453 43.0263 69.2958 44.4444 70.0709 45.9079L71.8383 44.9718C71.0326 43.4507 70.1567 41.9766 69.215 40.5535L67.5471 41.6572ZM70.0709 45.9079C70.846 47.3714 71.5456 48.8654 72.1691 50.384L74.0192 49.6244C73.3711 48.0458 72.6439 46.493 71.8383 44.9718L70.0709 45.9079ZM75.0116 59.8409C75.649 63.0794 75.9682 66.3716 75.9645 69.6694L77.9645 69.6717C77.9684 66.2434 77.6365 62.821 76.9739 59.4547L75.0116 59.8409ZM74.9875 79.4948C74.6657 81.1049 74.2641 82.7047 73.7821 84.2883L75.6954 84.8707C76.1966 83.2242 76.6142 81.5608 76.9487 79.8867L74.9875 79.4948ZM73.7821 84.2883C73.3016 85.867 72.746 87.4136 72.1191 88.9237L73.9662 89.6905C74.6181 88.1203 75.1958 86.5121 75.6954 84.8707L73.7821 84.2883ZM67.4739 97.5944C65.644 100.326 63.5499 102.87 61.2224 105.189L62.6339 106.605C65.0546 104.194 67.2325 101.548 69.1355 98.7075L67.4739 97.5944ZM53.6037 111.409C52.2411 112.313 50.8292 113.154 49.3715 113.926L50.3076 115.693C51.8237 114.89 53.2923 114.016 54.7095 113.075L53.6037 111.409Z" fill="black"/>
</svg>
