<svg width="97" height="117" viewBox="0 0 97 117" fill="none" xmlns="http://www.w3.org/2000/svg">
<path d="M25 37.8386L20.2308 40.6634C19.3906 41.161 18.5799 41.2985 17.7987 41.0756C17.0175 40.8528 16.3641 40.2977 15.8386 39.4104C15.313 38.5231 15.1479 37.6925 15.3432 36.9185C15.5406 36.1479 16.0627 35.5117 16.9097 35.0101L21.6587 32.1972L22.1663 33.0543L17.3568 35.9029C16.7417 36.2672 16.3691 36.715 16.2387 37.2462C16.1084 37.7773 16.2364 38.3689 16.6226 39.021C16.9909 39.6427 17.4392 40.0241 17.9677 40.1651C18.4995 40.3042 19.0746 40.1905 19.693 39.8242L24.4924 36.9816L25 37.8386ZM20.9529 47.8153L24.5273 45.6982C24.9776 45.4314 25.253 45.1299 25.3534 44.7935C25.4538 44.457 25.3746 44.0704 25.1158 43.6335C24.7734 43.0554 24.3663 42.7245 23.8945 42.6407C23.4227 42.557 22.8271 42.7281 22.1079 43.1541L19.2091 44.8711L18.7134 44.0342L24.2388 40.7615L24.6419 41.4421L23.9663 42.0261L23.9902 42.0665C24.364 42.0766 24.7164 42.1925 25.0474 42.4141C25.3818 42.6338 25.6614 42.9335 25.8864 43.3133C26.2805 43.9787 26.4158 44.5751 26.2922 45.1023C26.172 45.6275 25.759 46.0991 25.0532 46.5171L21.4486 48.6521L20.9529 47.8153ZM26.0883 53.0478C25.5741 53.3524 25.064 53.3957 24.5581 53.1778C24.0522 52.9598 23.5942 52.5047 23.1842 51.8123C22.7502 51.0797 22.5277 50.4396 22.5168 49.8922L23.2931 49.4324C23.316 49.7775 23.3783 50.1242 23.4802 50.4725C23.584 50.8241 23.7196 51.1411 23.8868 51.4234C24.1456 51.8603 24.4135 52.1556 24.6907 52.3093C24.9712 52.4609 25.2543 52.4522 25.54 52.283C25.7551 52.1556 25.8825 51.953 25.9223 51.6752C25.9674 51.3987 25.9339 50.9283 25.8218 50.2637C25.7088 49.636 25.6581 49.1711 25.6699 48.8691C25.687 48.5684 25.7545 48.3105 25.8723 48.0955C25.992 47.8838 26.178 47.7033 26.43 47.554C26.8804 47.2872 27.3435 47.2604 27.8193 47.4734C28.2984 47.6845 28.7271 48.1093 29.1053 48.7479C29.4577 49.3428 29.6811 49.9959 29.7755 50.7072L28.9187 50.8129C28.8188 50.123 28.6355 49.5528 28.3687 49.1025C28.1338 48.7059 27.8945 48.4436 27.6507 48.3156C27.4069 48.1876 27.1757 48.1883 26.9573 48.3177C26.8094 48.4053 26.7053 48.5169 26.6449 48.6525C26.5865 48.7916 26.56 48.973 26.5654 49.1967C26.5708 49.4205 26.6258 49.8238 26.7304 50.4066C26.8799 51.2033 26.9014 51.7876 26.7948 52.1595C26.6901 52.5347 26.4546 52.8308 26.0883 53.0478ZM31.3813 52.8206L27.7969 54.9437C27.3465 55.2104 27.0711 55.512 26.9708 55.8484C26.8704 56.1848 26.9496 56.5715 27.2083 57.0084C27.5507 57.5865 27.9585 57.9147 28.4317 57.9931C28.9069 58.0749 29.5024 57.9037 30.2183 57.4797L33.1222 55.7598L33.6179 56.5966L28.0925 59.8693L27.6834 59.1786L28.3528 58.6187L28.3259 58.5733C27.9522 58.5632 27.6025 58.448 27.2768 58.2277C26.9531 58.0108 26.6758 57.7074 26.4449 57.3176C26.0467 56.6454 25.9078 56.0467 26.028 55.5215C26.1502 54.9996 26.5626 54.5307 27.265 54.1146L30.8797 51.9737L31.3813 52.8206ZM30.5686 64.2798C30.3556 63.9202 30.226 63.552 30.1799 63.1752C30.1392 62.7998 30.1969 62.4297 30.3531 62.0648L30.3172 62.0043C30.0185 62.2357 29.7246 62.437 29.4355 62.6082L27.1618 63.9549L26.6661 63.1181L34.6719 58.3763L35.075 59.0569L34.3875 59.6207L34.4114 59.661C34.8413 59.697 35.2081 59.818 35.5117 60.024C35.8153 60.2301 36.0767 60.518 36.2956 60.8877C36.7296 61.6204 36.8136 62.3333 36.5478 63.0265C36.2839 63.7231 35.6999 64.3391 34.7958 64.8746C33.8883 65.4121 33.0621 65.6268 32.3171 65.5187C31.5774 65.412 30.9946 64.999 30.5686 64.2798ZM35.5131 61.1877C35.1787 60.6231 34.7805 60.3073 34.3187 60.2403C33.8568 60.1734 33.2827 60.3386 32.5965 60.736L32.41 60.8465C31.6336 61.3063 31.154 61.7652 30.9712 62.2231C30.7917 62.6789 30.8712 63.1925 31.2096 63.7639C31.4923 64.2412 31.9065 64.4998 32.4523 64.5397C33 64.583 33.6134 64.4036 34.2923 64.0015C34.9813 63.5934 35.4283 63.1448 35.6334 62.6555C35.8439 62.1677 35.8038 61.6784 35.5131 61.1877ZM34.319 70.6118C34.106 70.2522 33.9765 69.884 33.9304 69.5072C33.8896 69.1319 33.9473 68.7617 34.1035 68.3968L34.0677 68.3363C33.7689 68.5678 33.475 68.7691 33.1859 68.9403L30.9123 70.287L30.4166 69.4501L38.4224 64.7083L38.8255 65.3889L38.1379 65.9527L38.1618 65.9931C38.5917 66.029 38.9585 66.15 39.2621 66.3561C39.5658 66.5621 39.8271 66.85 40.0461 67.2197C40.48 67.9524 40.5641 68.6653 40.2982 69.3585C40.0343 70.0551 39.4503 70.6711 38.5462 71.2066C37.6388 71.7441 36.8125 71.9588 36.0675 71.8507C35.3278 71.744 34.745 71.3311 34.319 70.6118ZM39.2636 67.5197C38.9291 66.9551 38.531 66.6393 38.0691 66.5724C37.6072 66.5054 37.0332 66.6707 36.3469 67.068L36.1604 67.1785C35.384 67.6384 34.9044 68.0972 34.7216 68.5551C34.5421 69.011 34.6216 69.5246 34.96 70.0959C35.2427 70.5732 35.6569 70.8318 36.2027 70.8717C36.7505 70.9151 37.3638 70.7356 38.0427 70.3335C38.7317 69.9254 39.1787 69.4768 39.3838 68.9876C39.5943 68.4997 39.5542 68.0104 39.2636 67.5197ZM42.2399 77.4429C41.3392 77.9764 40.5007 78.1666 39.7244 78.0134C38.9516 77.8583 38.3282 77.3808 37.8544 76.5809C37.5618 76.0868 37.418 75.5795 37.423 75.059C37.4279 74.5385 37.5855 74.0457 37.8956 73.5805C38.2058 73.1153 38.6516 72.7105 39.233 72.3662C40.1337 71.8327 40.9679 71.6428 41.7354 71.7965C42.5063 71.9483 43.1286 72.4241 43.6024 73.224C44.0603 73.9971 44.1665 74.7627 43.921 75.521C43.6775 76.2827 43.1171 76.9233 42.2399 77.4429ZM39.7466 73.2333C39.0408 73.6513 38.5866 74.111 38.3842 74.6123C38.1817 75.1136 38.2427 75.6381 38.5671 76.186C38.8916 76.7338 39.3206 77.0404 39.8542 77.1057C40.3931 77.1724 41.0172 76.9958 41.7263 76.5757C42.4288 76.1597 42.8769 75.7013 43.0706 75.2007C43.2698 74.7014 43.2051 74.1744 42.8766 73.6199C42.5522 73.072 42.1275 72.7651 41.6026 72.6992C41.0778 72.6332 40.4591 72.8113 39.7466 73.2333ZM47.4633 79.7426C47.6086 79.988 47.7189 80.2201 47.794 80.4389L46.9489 80.7828C46.864 80.5244 46.7698 80.3078 46.6662 80.133C46.4015 79.686 45.9931 79.4103 45.441 79.3061C44.8908 79.2051 44.3452 79.3149 43.8041 79.6354L40.8398 81.3912L40.3441 80.5543L45.8695 77.2816L46.2786 77.9723L45.3119 78.6742L45.3358 78.7146C45.8168 78.7066 46.2404 78.7894 46.6066 78.963C46.9727 79.1366 47.2583 79.3964 47.4633 79.7426ZM44.4873 86.2042C44.5749 86.3521 44.6696 86.489 44.7714 86.6148C44.8765 86.7387 44.9647 86.834 45.036 86.9007L44.3958 87.2799C44.2983 87.2151 44.1834 87.1015 44.051 86.9393C43.9172 86.7825 43.8086 86.6335 43.725 86.4923C43.0919 85.4235 43.3384 84.5557 44.4643 83.8888L47.7513 81.9419L47.2825 81.1504L47.6858 80.9116L48.5025 81.497L49.8912 81.1512L50.1778 81.6352L48.8973 82.3936L49.8469 83.9968L49.1965 84.382L48.247 82.7788L44.9952 84.7048C44.6625 84.9019 44.4539 85.1322 44.3693 85.3956C44.2847 85.6591 44.3241 85.9286 44.4873 86.2042ZM46.284 90.8128C45.8002 89.9961 45.6667 89.2035 45.8835 88.435C46.1022 87.6698 46.6535 87.0255 47.5375 86.5019C48.4281 85.9744 49.265 85.7738 50.0481 85.9002C50.8332 86.0299 51.4447 86.4645 51.8826 87.2039C52.2927 87.8963 52.3886 88.5795 52.1704 89.2535C51.9556 89.9256 51.4751 90.4826 50.729 90.9245L50.1996 91.238L47.9452 87.4318C47.3065 87.8328 46.9106 88.2874 46.7577 88.7957C46.6067 89.3073 46.6985 89.8455 47.0329 90.4101C47.3852 91.005 47.858 91.5195 48.4511 91.9536L47.7049 92.3956C47.402 92.1754 47.1451 91.9486 46.934 91.7149C46.7216 91.4866 46.5049 91.1859 46.284 90.8128ZM51.1759 87.6089C50.9131 87.1653 50.5586 86.8963 50.1123 86.802C49.668 86.711 49.1764 86.7933 48.6377 87.0488L50.3487 89.9376C50.8764 89.625 51.21 89.2685 51.3496 88.868C51.4926 88.4655 51.4347 88.0458 51.1759 87.6089ZM51.4048 97.5385L51.378 97.4932C50.5878 97.4391 49.9647 97.0272 49.5089 96.2576C49.0809 95.535 48.9945 94.8257 49.2496 94.1297C49.5068 93.4372 50.0908 92.8211 51.0016 92.2817C51.9124 91.7422 52.7394 91.5248 53.4824 91.6295C54.2254 91.7342 54.8099 92.1462 55.2359 92.8655C55.6798 93.6149 55.748 94.3509 55.4404 95.0734L55.4792 95.1389L55.8566 94.8677L56.2329 94.6176L58.4813 93.2859L58.977 94.1227L51.1326 98.769L50.7294 98.0884L51.4048 97.5385ZM50.2723 95.9484C50.6107 96.5197 51.0102 96.8416 51.4707 96.9139C51.9365 96.9875 52.5157 96.8193 53.208 96.4092L53.3845 96.3047C54.1676 95.8409 54.6478 95.3794 54.8253 94.9201C55.0081 94.4623 54.9303 93.9477 54.5919 93.3763C54.3013 92.8856 53.8867 92.6226 53.3483 92.5874C52.8152 92.5536 52.2008 92.7427 51.5051 93.1548C50.7993 93.5728 50.3433 94.0177 50.1369 94.4895C49.9306 94.9613 49.9757 95.4476 50.2723 95.9484Z" fill="black"/>
<path d="M52.6239 112.974C52.5577 113.242 52.7214 113.513 52.9895 113.58L57.3583 114.658C57.6264 114.724 57.8974 114.561 57.9636 114.293C58.0298 114.025 57.8661 113.754 57.598 113.687L53.7146 112.729L54.6734 108.845C54.7396 108.577 54.5759 108.306 54.3078 108.24C54.0397 108.174 53.7687 108.337 53.7025 108.606L52.6239 112.974ZM75.7196 82.2608L76.2054 82.3793L76.2054 82.3793L75.7196 82.2608ZM39.0157 21.4913L39.1369 21.0063L39.1369 21.0063L39.0157 21.4913ZM0.716679 27.0333C0.650489 27.3014 0.814163 27.5724 1.08226 27.6386L5.45107 28.7172C5.71916 28.7834 5.99015 28.6198 6.05634 28.3517C6.12253 28.0836 5.95886 27.8126 5.69077 27.7464L1.80738 26.7876L2.76616 22.9042C2.83235 22.6361 2.66867 22.3651 2.40058 22.2989C2.13249 22.2328 1.8615 22.3964 1.79531 22.6645L0.716679 27.0333ZM1.4606 27.5812C2.85253 26.7405 4.27904 25.9731 5.73449 25.2798L5.30444 24.377C3.81936 25.0844 2.36382 25.8674 0.943602 26.7252L1.4606 27.5812ZM14.8571 21.994C17.9975 21.2023 21.21 20.7222 24.4473 20.5608L24.3975 19.562C21.0945 19.7267 17.8169 20.2166 14.6127 21.0243L14.8571 21.994ZM34.1328 21.0314C35.7272 21.2673 37.3163 21.582 38.8944 21.9764L39.1369 21.0063C37.5269 20.6039 35.9057 20.2828 34.2791 20.0422L34.1328 21.0314ZM38.8944 21.9764C40.4775 22.3721 42.0334 22.8439 43.5576 23.3884L43.8941 22.4467C42.3392 21.8912 40.7519 21.4099 39.1369 21.0063L38.8944 21.9764ZM52.3583 27.5452C55.1476 29.2144 57.7685 31.1537 60.1825 33.3347L60.8529 32.5927C58.3906 30.3681 55.7171 28.3898 52.8718 26.6871L52.3583 27.5452ZM66.7345 40.5329C67.7019 41.83 68.6099 43.1789 69.4538 44.5762L70.3098 44.0592C69.449 42.634 68.5229 41.2581 67.5361 39.935L66.7345 40.5329ZM69.4538 44.5762C70.2978 45.9734 71.0691 47.4049 71.7669 48.8649L72.6691 48.4336C71.9574 46.9444 71.1706 45.4843 70.3098 44.0592L69.4538 44.5762ZM75.0885 58.0141C75.8954 61.1658 76.3921 64.3881 76.5713 67.6338L77.5697 67.5787C77.3869 64.2678 76.8803 60.9809 76.0573 57.766L75.0885 58.0141ZM76.1544 77.3578C75.927 78.9603 75.6205 80.557 75.2339 82.1423L76.2054 82.3793C76.5998 80.762 76.9125 79.1331 77.1445 77.4983L76.1544 77.3578ZM75.2339 82.1423C74.8484 83.7227 74.3874 85.2757 73.8541 86.7967L74.7978 87.1276C75.3419 85.5758 75.8122 83.9915 76.2054 82.3793L75.2339 82.1423ZM69.7629 95.5883C68.1133 98.3785 66.1932 100.998 64.031 103.409L64.7754 104.077C66.9817 101.617 68.9407 98.9439 70.6237 96.0972L69.7629 95.5883ZM56.8769 109.955C55.5859 110.92 54.2427 111.825 52.8508 112.666L53.3678 113.522C54.788 112.664 56.1585 111.741 57.4758 110.755L56.8769 109.955ZM52.1385 112.854C52.0061 113.391 52.3334 113.933 52.8696 114.065L61.6073 116.222C62.1434 116.355 62.6854 116.027 62.8178 115.491C62.9502 114.955 62.6228 114.413 62.0867 114.281L54.3199 112.363L56.2374 104.596C56.3698 104.06 56.0425 103.518 55.5063 103.386C54.9701 103.253 54.4281 103.581 54.2957 104.117L52.1385 112.854ZM75.7196 82.2608L76.6911 82.4977L76.6911 82.4977L75.7196 82.2608ZM39.0157 21.4913L39.2581 20.5212L39.2581 20.5212L39.0157 21.4913ZM0.231255 26.9135C0.0988751 27.4497 0.426223 27.9917 0.962408 28.124L9.70004 30.2813C10.2362 30.4137 10.7782 30.0863 10.9106 29.5501C11.043 29.014 10.7156 28.472 10.1794 28.3396L2.41265 26.422L4.33021 18.6552C4.46259 18.1191 4.13525 17.5771 3.59906 17.4447C3.06288 17.3123 2.5209 17.6397 2.38852 18.1759L0.231255 26.9135ZM1.71911 28.0092C3.09688 27.177 4.50888 26.4174 5.94951 25.7312L5.08942 23.9255C3.58952 24.64 2.11947 25.4309 0.685101 26.2972L1.71911 28.0092ZM14.9793 22.4788C18.0878 21.6952 21.2677 21.22 24.4722 21.0602L24.3725 19.0626C21.0368 19.229 17.7266 19.7237 14.4905 20.5395L14.9793 22.4788ZM34.0596 21.5261C35.6379 21.7595 37.2109 22.0711 38.7732 22.4615L39.2581 20.5212C37.6322 20.1148 35.995 19.7906 34.3522 19.5476L34.0596 21.5261ZM38.7732 22.4615C40.3403 22.8532 41.8806 23.3202 43.3894 23.8593L44.0623 21.9759C42.492 21.4148 40.889 20.9288 39.2581 20.5212L38.7732 22.4615ZM52.1015 27.9742C54.8629 29.6267 57.4575 31.5466 59.8473 33.7058L61.1881 32.2217C58.7016 29.9752 56.0019 27.9776 53.1285 26.2581L52.1015 27.9742ZM66.3337 40.8318C67.2914 42.116 68.1904 43.4514 69.0259 44.8347L70.7378 43.8007C69.8686 42.3615 68.9334 40.9722 67.9369 39.6361L66.3337 40.8318ZM69.0259 44.8347C69.8614 46.218 70.6249 47.6351 71.3158 49.0805L73.1202 48.218C72.4015 46.7142 71.607 45.2398 70.7378 43.8007L69.0259 44.8347ZM74.6041 58.1381C75.4029 61.2582 75.8946 64.4482 76.072 67.6614L78.069 67.5511C77.8844 64.2077 77.3728 60.8884 76.5416 57.642L74.6041 58.1381ZM75.6594 77.2876C75.4343 78.8739 75.1308 80.4546 74.7481 82.0239L76.6911 82.4977C77.0894 80.8645 77.4053 79.2195 77.6395 77.5686L75.6594 77.2876ZM74.7481 82.0239C74.3666 83.5883 73.9102 85.1256 73.3822 86.6312L75.2696 87.293C75.8191 85.7259 76.2941 84.1259 76.6911 82.4977L74.7481 82.0239ZM69.3325 95.3338C67.6996 98.0957 65.799 100.689 63.6587 103.076L65.1477 104.411C67.3759 101.926 69.3543 99.2267 71.0541 96.3517L69.3325 95.3338ZM56.5775 109.554C55.2996 110.51 53.9701 111.406 52.5923 112.238L53.6263 113.95C55.0607 113.084 56.4449 112.151 57.7753 111.156L56.5775 109.554Z" fill="black"/>
</svg>
