<svg width="94" height="117" viewBox="0 0 94 117" fill="none" xmlns="http://www.w3.org/2000/svg">
<path d="M25.6239 33.8371L20.8852 36.7127C20.0503 37.2194 19.2411 37.3654 18.4576 37.151C17.674 36.9365 17.0147 36.3885 16.4797 35.5068C15.9447 34.6252 15.7708 33.7964 15.9578 33.0203C16.1469 32.2476 16.6622 31.606 17.5037 31.0953L22.2224 28.2318L22.7391 29.0834L17.9604 31.9833C17.3492 32.3542 16.9814 32.8059 16.8567 33.3384C16.7321 33.871 16.8664 34.4612 17.2595 35.109C17.6344 35.7268 18.0869 36.1034 18.6168 36.2387C19.15 36.3721 19.7239 36.2523 20.3384 35.8794L25.1071 32.9855L25.6239 33.8371ZM21.6837 43.8565L25.2352 41.7013C25.6827 41.4297 25.9548 41.1252 26.0516 40.7878C26.1484 40.4503 26.0651 40.0645 25.8016 39.6304C25.4531 39.056 25.0425 38.7295 24.5698 38.6508C24.0971 38.5721 23.5034 38.7496 22.7888 39.1832L19.9085 40.9311L19.4039 40.0996L24.8939 36.768L25.3043 37.4442L24.635 38.0354L24.6593 38.0755C25.0332 38.0817 25.3868 38.1938 25.7202 38.4119C26.0569 38.6279 26.3397 38.9246 26.5687 39.302C26.97 39.9632 27.1116 40.558 26.9937 41.0865C26.8791 41.613 26.4712 42.089 25.7699 42.5146L22.1883 44.688L21.6837 43.8565ZM26.8748 49.0338C26.3638 49.3438 25.8543 49.3926 25.3461 49.1801C24.8379 48.9676 24.375 48.5174 23.9576 47.8295C23.5158 47.1015 23.2865 46.4638 23.2697 45.9166L24.0411 45.4485C24.0676 45.7933 24.1337 46.1394 24.2392 46.4865C24.3468 46.837 24.4858 47.1525 24.656 47.433C24.9194 47.8672 25.1905 48.1596 25.4693 48.3103C25.7514 48.4589 26.0344 48.4471 26.3183 48.2748C26.532 48.1452 26.6573 47.9412 26.694 47.663C26.7362 47.3861 26.6977 46.916 26.5785 46.2527C26.4587 45.6263 26.4032 45.162 26.4117 44.8598C26.4256 44.5589 26.4903 44.3003 26.6058 44.084C26.7233 43.8711 26.9073 43.6886 27.1577 43.5366C27.6052 43.2651 28.068 43.2333 28.546 43.4412C29.0274 43.6472 29.4606 44.0674 29.8456 44.7019C30.2043 45.293 30.4347 45.9436 30.5367 46.6539L29.6811 46.7687C29.5738 46.0799 29.3844 45.5118 29.1128 45.0643C28.8737 44.6702 28.6316 44.4105 28.3864 44.2851C28.1413 44.1597 27.9102 44.1629 27.6931 44.2946C27.5462 44.3838 27.4432 44.4965 27.3843 44.6328C27.3274 44.7724 27.3028 44.9541 27.3107 45.1778C27.3185 45.4016 27.3778 45.8042 27.4885 46.3858C27.6466 47.1809 27.6743 47.7649 27.5717 48.1379C27.4711 48.5143 27.2388 48.8129 26.8748 49.0338ZM32.1651 48.75L28.6035 50.9113C28.1561 51.1828 27.8839 51.4873 27.7871 51.8248C27.6903 52.1622 27.7737 52.548 28.0371 52.9822C28.3857 53.5566 28.797 53.8804 29.271 53.9537C29.747 54.0304 30.3407 53.8529 31.052 53.4213L33.9373 51.6704L34.4419 52.5019L28.9518 55.8335L28.5353 55.1472L29.1987 54.5801L29.1714 54.5351C28.7975 54.5289 28.4466 54.4174 28.1186 54.2007C27.7926 53.9873 27.5121 53.6869 27.277 53.2995C26.8717 52.6316 26.7263 52.0344 26.8409 51.508C26.9576 50.9848 27.3649 50.5115 28.0628 50.088L31.6544 47.9084L32.1651 48.75ZM31.4749 60.2172C31.2581 59.8599 31.1246 59.4931 31.0745 59.1169C31.0297 58.7419 31.0835 58.3712 31.2357 58.0046L31.1992 57.9445C30.903 58.1791 30.6112 58.3836 30.3241 58.5579L28.0649 59.9288L27.5603 59.0973L35.5149 54.2701L35.9253 54.9464L35.2438 55.5175L35.2681 55.5576C35.6984 55.589 36.0664 55.706 36.3723 55.9088C36.6781 56.1116 36.9425 56.3967 37.1654 56.764C37.6072 57.492 37.6988 58.204 37.4404 58.9C37.1839 59.5994 36.6066 60.2216 35.7083 60.7668C34.8066 61.3139 33.9827 61.5375 33.2366 61.4374C32.4958 61.3386 31.9086 60.9319 31.4749 60.2172ZM36.3861 57.0724C36.0457 56.5114 35.6442 56.1999 35.1816 56.1379C34.719 56.0759 34.1468 56.2472 33.4648 56.6519L33.2795 56.7644C32.5081 57.2325 32.0334 57.6965 31.8555 58.1563C31.6809 58.614 31.7659 59.1268 32.1104 59.6945C32.3982 60.1687 32.8151 60.4229 33.3613 60.457C33.9095 60.4944 34.5209 60.3085 35.1954 59.8991C35.88 59.4837 36.3222 59.0303 36.5221 58.5389C36.7273 58.0488 36.682 57.56 36.3861 57.0724ZM35.2929 66.5088C35.076 66.1514 34.9426 65.7847 34.8924 65.4084C34.8477 65.0335 34.9014 64.6627 35.0537 64.2962L35.0172 64.2361C34.7209 64.4707 34.4292 64.6751 34.142 64.8494L31.8829 66.2204L31.3783 65.3888L39.3329 60.5617L39.7432 61.2379L39.0618 61.8091L39.0861 61.8492C39.5163 61.8805 39.8844 61.9976 40.1902 62.2004C40.496 62.4032 40.7604 62.6882 40.9833 63.0556C41.4251 63.7836 41.5168 64.4956 41.2583 65.1916C41.0019 65.8909 40.4245 66.5132 39.5262 67.0583C38.6246 67.6055 37.8007 67.829 37.0545 67.7289C36.3138 67.6301 35.7266 67.2234 35.2929 66.5088ZM40.2041 63.364C39.8636 62.8029 39.4621 62.4914 38.9996 62.4294C38.537 62.3674 37.9647 62.5388 37.2828 62.9435L37.0974 63.056C36.326 63.5241 35.8514 63.988 35.6735 64.4478C35.4989 64.9056 35.5839 65.4183 35.9284 65.986C36.2161 66.4603 36.6331 66.7144 37.1793 66.7485C37.7274 66.786 38.3388 66.6 39.0134 66.1907C39.698 65.7752 40.1402 65.3218 40.3401 64.8304C40.5453 64.3403 40.4999 63.8515 40.2041 63.364ZM43.2864 73.2547C42.3914 73.7978 41.555 73.9969 40.7772 73.8521C40.0027 73.7053 39.3743 73.2344 38.892 72.4396C38.5941 71.9487 38.4448 71.443 38.4442 70.9225C38.4436 70.402 38.5959 69.9075 38.901 69.439C39.2062 68.9705 39.6476 68.561 40.2254 68.2104C41.1203 67.6673 41.9524 67.4685 42.7215 67.6141C43.494 67.7576 44.1214 68.2267 44.6037 69.0215C45.0698 69.7896 45.1842 70.5541 44.9468 71.315C44.7115 72.0792 44.158 72.7258 43.2864 73.2547ZM40.7482 69.072C40.0469 69.4976 39.5977 69.9621 39.4006 70.4655C39.2035 70.9689 39.2701 71.4928 39.6004 72.0372C39.9307 72.5815 40.363 72.8835 40.8972 72.9431C41.4368 73.004 42.0589 72.8207 42.7636 72.3931C43.4615 71.9696 43.9047 71.5064 44.0931 71.0037C44.2869 70.5023 44.2166 69.9761 43.8822 69.4251C43.5519 68.8808 43.124 68.5784 42.5984 68.5181C42.0729 68.4577 41.4562 68.6424 40.7482 69.072ZM48.5341 75.4984C48.6821 75.7422 48.7948 75.9731 48.8722 76.1911L48.0309 76.544C47.9432 76.2865 47.8466 76.071 47.7413 75.8973C47.4717 75.4532 47.0604 75.1819 46.5072 75.0835C45.956 74.9885 45.4116 75.1041 44.874 75.4304L41.9286 77.2177L41.424 76.3862L46.9141 73.0546L47.3305 73.7409L46.3714 74.4531L46.3957 74.4932C46.8766 74.4801 47.3011 74.5583 47.6691 74.728C48.037 74.8976 48.3254 75.1545 48.5341 75.4984ZM45.6274 81.9915C45.7165 82.1384 45.8127 82.2743 45.9158 82.399C46.0223 82.5218 46.1115 82.6161 46.1835 82.6821L45.5474 83.0681C45.4492 83.0043 45.3331 82.892 45.199 82.7312C45.0636 82.5758 44.9533 82.428 44.8682 82.2877C44.2237 81.2258 44.4609 80.3554 45.5796 79.6765L48.8456 77.6946L48.3683 76.9081L48.7691 76.6649L49.592 77.2416L50.9769 76.881L51.2687 77.3618L49.9964 78.1339L50.963 79.7269L50.3168 80.119L49.3502 78.5261L46.1193 80.4867C45.7887 80.6874 45.5825 80.9198 45.5007 81.1842C45.419 81.4486 45.4612 81.7177 45.6274 81.9915ZM47.4732 86.5806C46.9808 85.7691 46.8388 84.978 47.0473 84.2072C47.2579 83.4397 47.8023 82.7895 48.6805 82.2566C49.5655 81.7195 50.4002 81.51 51.1846 81.628C51.971 81.7493 52.5872 82.1774 53.033 82.912C53.4504 83.6 53.5537 84.2821 53.3427 84.9584C53.1351 85.6328 52.6606 86.1949 51.9192 86.6447L51.3932 86.9639L49.0982 83.182C48.4638 83.5898 48.0729 84.0486 47.9254 84.5585C47.7799 85.0717 47.8774 85.6089 48.2178 86.1699C48.5765 86.761 49.0547 87.2704 49.6524 87.6982L48.9111 88.1481C48.6058 87.9312 48.3464 87.7071 48.1329 87.4757C47.9181 87.2496 47.6982 86.9513 47.4732 86.5806ZM52.3306 83.3245C52.0631 82.8837 51.7057 82.6186 51.2584 82.529C50.8132 82.4428 50.3226 82.5304 49.7866 82.7916L51.5284 85.6619C52.0527 85.3438 52.3825 84.9837 52.5178 84.5817C52.6565 84.1777 52.5941 83.7587 52.3306 83.3245ZM52.6658 93.2512L52.6384 93.2061C51.8477 93.1605 51.2203 92.7553 50.7562 91.9905C50.3205 91.2726 50.2265 90.5643 50.4742 89.8656C50.724 89.1703 51.3013 88.5481 52.2063 87.9989C53.1113 87.4497 53.9359 87.2235 54.68 87.3203C55.4241 87.417 56.013 87.8227 56.4466 88.5374C56.8986 89.2821 56.9746 90.0173 56.6748 90.743L56.7143 90.8081L57.0887 90.5329L57.4623 90.2788L59.6964 88.923L60.201 89.7546L52.4067 94.4844L51.9963 93.8082L52.6658 93.2512ZM51.5163 91.6732C51.8608 92.2409 52.2637 92.5585 52.7249 92.6258C53.1916 92.6945 53.7688 92.5201 54.4568 92.1026L54.6321 91.9962C55.4102 91.5241 55.8855 91.0574 56.058 90.5963C56.2359 90.1365 56.1526 89.6228 55.8081 89.0551C55.5123 88.5675 55.0949 88.309 54.5562 88.2795C54.0228 88.2514 53.4104 88.4471 52.7192 88.8666C52.0179 89.2921 51.5666 89.7419 51.3653 90.2159C51.164 90.6899 51.2144 91.1756 51.5163 91.6732Z" fill="black"/>
<path d="M48.4889 112.547C48.4078 112.811 48.5559 113.091 48.8199 113.172L53.1211 114.495C53.3851 114.576 53.6648 114.428 53.746 114.164C53.8272 113.9 53.679 113.62 53.415 113.539L49.5917 112.363L50.7674 108.54C50.8486 108.276 50.7004 107.996 50.4365 107.915C50.1725 107.834 49.8928 107.982 49.8116 108.246L48.4889 112.547ZM73.2841 83.1711L72.8058 83.0255L72.8058 83.0255L73.2841 83.1711ZM40.0446 20.4113L39.8962 20.8888L39.8962 20.8888L40.0446 20.4113ZM1.48107 23.7917C1.3999 24.0556 1.54808 24.3354 1.81202 24.4165L6.11325 25.7392C6.3772 25.8204 6.65697 25.6722 6.73813 25.4082C6.81929 25.1443 6.67112 24.8645 6.40718 24.7834L2.58386 23.6077L3.75954 19.7844C3.84071 19.5204 3.69254 19.2406 3.42859 19.1595C3.16465 19.0783 2.88488 19.2265 2.80371 19.4904L1.48107 23.7917ZM2.193 24.3805C3.63052 23.6191 5.09846 22.9329 6.59113 22.3224L6.21254 21.3968C4.68949 22.0198 3.19169 22.72 1.72496 23.4968L2.193 24.3805ZM15.8874 19.5539C19.0685 18.9399 22.304 18.6412 25.5464 18.662L25.5529 17.6621C22.2448 17.6407 18.9436 17.9456 15.6979 18.572L15.8874 19.5539ZM35.1936 19.6771C36.7727 20.0024 38.3422 20.4061 39.8962 20.8888L40.1929 19.9338C38.6075 19.4414 37.0064 19.0295 35.3953 18.6976L35.1936 19.6771ZM39.8962 20.8888C41.4551 21.373 42.9826 21.9318 44.4743 22.5615L44.8631 21.6402C43.3414 20.9978 41.7831 20.4278 40.1929 19.9338L39.8962 20.8888ZM53.0302 27.2083C55.7222 29.0324 58.2308 31.1168 60.5191 33.431L61.2302 32.7279C58.896 30.3674 56.3372 28.2412 53.5912 26.3804L53.0302 27.2083ZM66.658 40.9889C67.5513 42.3389 68.3823 43.7372 69.1466 45.1803L70.0303 44.7122C69.2507 43.2404 68.4031 41.8141 67.492 40.4371L66.658 40.9889ZM69.1466 45.1803C69.9108 46.6233 70.6007 48.0964 71.2155 49.5938L72.1405 49.214C71.5134 47.6866 70.8098 46.1841 70.0303 44.7122L69.1466 45.1803ZM74.0182 58.9187C74.6468 62.1119 74.9615 65.3582 74.9579 68.6101L75.9579 68.6112C75.9616 65.2941 75.6405 61.9827 74.9994 58.7256L74.0182 58.9187ZM73.9945 78.2987C73.6772 79.8864 73.2811 81.4639 72.8058 83.0255L73.7625 83.3167C74.2474 81.7237 74.6514 80.1144 74.9751 78.4946L73.9945 78.2987ZM72.8058 83.0255C72.332 84.5823 71.7841 86.1074 71.1659 87.5965L72.0894 87.98C72.7202 86.4608 73.2791 84.9049 73.7625 83.3167L72.8058 83.0255ZM66.585 96.1471C64.7805 98.8411 62.7154 101.35 60.4201 103.636L61.1258 104.345C63.4677 102.012 65.5747 99.4522 67.4158 96.7037L66.585 96.1471ZM52.9066 109.771C51.5628 110.662 50.1704 111.491 48.7328 112.253L49.2009 113.136C50.6676 112.359 52.0884 111.514 53.4595 110.604L52.9066 109.771ZM48.011 112.4C47.8487 112.928 48.145 113.488 48.6729 113.65L57.2754 116.295C57.8033 116.458 58.3628 116.161 58.5251 115.634C58.6875 115.106 58.3911 114.546 57.8632 114.384L50.2166 112.032L52.568 104.386C52.7303 103.858 52.434 103.298 51.9061 103.136C51.3782 102.974 50.8186 103.27 50.6563 103.798L48.011 112.4ZM73.2841 83.1711L72.3275 82.8799L72.3275 82.8799L73.2841 83.1711ZM40.0446 20.4113L39.7479 21.3663L39.7479 21.3663L40.0446 20.4113ZM1.00315 23.6447C0.840825 24.1726 1.13717 24.7321 1.66506 24.8945L10.2675 27.5398C10.7954 27.7021 11.3549 27.4057 11.5173 26.8778C11.6796 26.35 11.3833 25.7904 10.8554 25.6281L3.20873 23.2767L5.56011 15.6301C5.72243 15.1022 5.42609 14.5427 4.8982 14.3803C4.37031 14.218 3.81078 14.5144 3.64845 15.0422L1.00315 23.6447ZM2.42702 24.8223C3.84993 24.0687 5.30294 23.3895 6.78042 22.7851L6.02325 20.934C4.48501 21.5632 2.97228 22.2704 1.49094 23.0549L2.42702 24.8223ZM15.9822 20.0448C19.131 19.4371 22.3337 19.1414 25.5432 19.162L25.5561 17.1621C22.2151 17.1405 18.8812 17.4484 15.6032 18.0811L15.9822 20.0448ZM35.0927 20.1668C36.6559 20.4888 38.2095 20.8885 39.7479 21.3663L40.3412 19.4563C38.7402 18.959 37.1232 18.5431 35.4962 18.2079L35.0927 20.1668ZM39.7479 21.3663C41.2911 21.8457 42.8032 22.3988 44.2798 23.0221L45.0576 21.1795C43.5208 20.5309 41.9472 19.9552 40.3412 19.4563L39.7479 21.3663ZM52.7497 27.6222C55.4147 29.428 57.8982 31.4916 60.1636 33.7826L61.5857 32.3763C59.2287 29.9926 56.6447 27.8456 53.8716 25.9665L52.7497 27.6222ZM66.2411 41.2649C67.1254 42.6013 67.9481 43.9856 68.7047 45.4143L70.4721 44.4782C69.6849 42.9919 68.8291 41.5517 67.909 40.1612L66.2411 41.2649ZM68.7047 45.4143C69.4614 46.8429 70.1443 48.3013 70.7529 49.7837L72.6031 49.0241C71.9698 47.4817 71.2593 45.9645 70.4721 44.4782L68.7047 45.4143ZM73.5276 59.0153C74.1499 62.1765 74.4615 65.3903 74.4579 68.6095L76.4579 68.6117C76.4616 65.262 76.1374 61.9181 75.49 58.629L73.5276 59.0153ZM73.5042 78.2007C73.1901 79.7724 72.798 81.3341 72.3275 82.8799L74.2408 83.4623C74.7305 81.8535 75.1385 80.2283 75.4654 78.5926L73.5042 78.2007ZM72.3275 82.8799C71.8584 84.421 71.3161 85.9308 70.7041 87.4048L72.5512 88.1717C73.1882 86.6374 73.7526 85.0661 74.2408 83.4623L72.3275 82.8799ZM66.1696 95.8689C64.3833 98.5355 62.3392 101.019 60.0672 103.282L61.4787 104.699C63.8439 102.343 65.9719 99.7578 67.8313 96.9819L66.1696 95.8689ZM52.6301 109.354C51.3 110.237 49.9217 111.057 48.4988 111.811L49.4349 113.578C50.9162 112.794 52.3512 111.939 53.736 111.021L52.6301 109.354Z" fill="black"/>
</svg>
